<svg width="421" height="73" viewBox="0 0 421 73" fill="none" xmlns="http://www.w3.org/2000/svg">
<path d="M0.24 8.832V5.952H17.904L45.552 64.704L42.384 72H29.904L0.24 8.832ZM54.48 44.256H54.096L47.664 59.808L39.408 42.144L54.48 5.952H72.72V72H54.48V44.256ZM0.24 18.336L17.904 55.968V72H0.24V18.336ZM193.084 5.952H212.284V72H193.084V5.952ZM216.316 36.768H218.62C220.668 36.768 222.172 36.704 223.132 36.576C224.156 36.384 224.956 36 225.532 35.424C226.108 34.912 226.46 34.176 226.588 33.216C226.78 32.192 226.876 30.688 226.876 28.704C226.876 26.72 226.78 25.248 226.588 24.288C226.46 23.264 226.108 22.464 225.532 21.888C224.956 21.376 224.156 21.056 223.132 20.928C222.108 20.736 220.604 20.64 218.62 20.64H216.316V5.952H224.284C229.02 5.952 232.86 6.432 235.804 7.392C238.812 8.288 241.084 9.696 242.62 11.616C244.092 13.408 245.084 15.68 245.596 18.432C246.108 21.12 246.364 24.544 246.364 28.704C246.364 32.672 246.108 35.968 245.596 38.592C245.148 41.216 244.22 43.424 242.812 45.216C241.212 47.264 238.908 48.832 235.9 49.92C232.956 50.944 229.084 51.456 224.284 51.456H216.316V36.768Z" fill="#6CAC3D"/>
<path d="M109.466 41.664C109.466 40 109.402 38.816 109.274 38.112C109.146 37.408 108.762 36.896 108.122 36.576C107.546 36.256 106.458 36.032 104.858 35.904C103.898 35.84 101.818 35.808 98.6175 35.808C95.5455 35.808 92.6975 35.936 90.0735 36.192L84.9855 36.48V24C91.0015 22.848 97.4975 22.272 104.474 22.272C109.85 22.272 114.042 22.656 117.05 23.424C120.122 24.192 122.426 25.408 123.962 27.072C125.306 28.608 126.17 30.56 126.554 32.928C127.002 35.296 127.226 38.592 127.226 42.816V72H109.466V41.664ZM95.2575 72.672C90.8415 72.672 87.5775 71.456 85.4655 69.024C83.3535 66.528 82.2975 62.784 82.2975 57.792C82.2975 54.72 82.5215 52.256 82.9695 50.4C83.4175 48.48 84.1855 46.976 85.2735 45.888C86.3615 44.736 87.8655 43.936 89.7855 43.488C91.7055 42.976 94.2335 42.72 97.3695 42.72L105.434 42.912V51.456H104.474C103.002 51.456 102.042 51.488 101.594 51.552C100.314 51.616 99.6415 52.224 99.5775 53.376C99.5135 53.76 99.4815 54.56 99.4815 55.776C99.4815 56.736 99.5135 57.472 99.5775 57.984C99.7055 58.496 99.8975 58.912 100.154 59.232C100.474 59.68 100.954 59.936 101.594 60C102.49 60.128 103.45 60.192 104.474 60.192H105.434V69.984C104.026 71.072 102.522 71.776 100.922 72.096C99.3855 72.48 97.4975 72.672 95.2575 72.672ZM133.717 23.04H153.109L186.133 72H166.741L133.717 23.04ZM163.189 30.72L167.221 23.04H185.461L172.309 44.256L163.189 30.72ZM146.869 49.824L155.989 63.36L151.381 72H133.141L146.869 49.824ZM275.983 25.824C277.327 24.544 278.895 23.648 280.687 23.136C282.543 22.56 284.815 22.272 287.503 22.272V38.304C284.623 38.304 282.255 38.496 280.399 38.88C278.607 39.264 277.135 39.936 275.983 40.896V25.824ZM254.191 23.04H271.951V72H254.191V23.04ZM321.863 47.616C321.863 44.352 321.831 42.176 321.767 41.088C321.703 39.552 321.511 38.4 321.191 37.632C320.871 36.8 320.359 36.288 319.655 36.096C318.887 35.904 317.831 35.808 316.487 35.808H315.143V22.272H316.487C322.055 22.272 326.407 22.72 329.543 23.616C332.679 24.448 335.015 25.856 336.551 27.84C337.959 29.632 338.855 32.032 339.239 35.04C339.687 37.984 339.911 42.176 339.911 47.616C339.911 52.672 339.751 56.608 339.431 59.424C339.175 62.176 338.503 64.448 337.415 66.24C336.199 68.224 334.375 69.728 331.943 70.752C329.511 71.712 326.151 72.32 321.863 72.576V47.616ZM316.487 72.768C310.919 72.768 306.567 72.352 303.431 71.52C300.295 70.688 297.959 69.28 296.423 67.296C295.015 65.504 294.087 63.136 293.639 60.192C293.255 57.248 293.063 53.056 293.063 47.616C293.063 42.624 293.223 38.72 293.543 35.904C293.863 33.088 294.567 30.752 295.655 28.896C296.807 26.848 298.599 25.344 301.031 24.384C303.463 23.36 306.823 22.72 311.111 22.464V47.616C311.111 50.88 311.143 53.024 311.207 54.048C311.271 55.584 311.463 56.736 311.783 57.504C312.103 58.272 312.647 58.752 313.415 58.944C314.055 59.136 315.079 59.232 316.487 59.232H317.831V72.768H316.487ZM409.441 15.456C409.249 16.224 409.153 17.312 409.153 18.72V23.04H420.865V36.576H345.697V23.04H354.721V21.984C354.721 16.544 355.105 12.416 355.873 9.6C356.641 6.784 358.049 4.736 360.097 3.456C362.017 2.24 364.673 1.472 368.065 1.152C371.457 0.831997 376.833 0.671997 384.193 0.671997V12.96C380.865 12.96 378.689 12.992 377.665 13.056C376.129 13.12 374.945 13.344 374.113 13.728C373.345 14.112 372.897 14.688 372.769 15.456C372.577 16.224 372.481 17.312 372.481 18.72V23.04H391.393V21.984C391.393 16.544 391.777 12.416 392.545 9.6C393.313 6.784 394.721 4.736 396.769 3.456C398.689 2.24 401.345 1.472 404.737 1.152C408.129 0.831997 413.505 0.671997 420.865 0.671997V12.96C417.537 12.96 415.361 12.992 414.337 13.056C412.801 13.12 411.617 13.344 410.785 13.728C410.017 14.112 409.569 14.688 409.441 15.456ZM354.721 40.416H372.481V72H354.721V40.416ZM391.393 40.416H409.153V72H391.393V40.416Z" fill="white"/>
</svg>
